<svg xmlns="http://www.w3.org/2000/svg" xmlns:xlink="http://www.w3.org/1999/xlink" width="1056" zoomAndPan="magnify" viewBox="0 0 792 611.999999" height="816" preserveAspectRatio="xMidYMid meet" version="1.0"><defs><clipPath id="baaed7b0d4"><path d="M 120.601562 30.601562 L 671.101562 30.601562 L 671.101562 581.101562 L 120.601562 581.101562 Z M 120.601562 30.601562 " clip-rule="nonzero"/></clipPath></defs><rect x="-79.2" width="950.4" fill="#ffffff" y="-61.2" height="734.399999" fill-opacity="1"/><rect x="-79.2" width="950.4" fill="#ffffff" y="-61.2" height="734.399999" fill-opacity="1"/><g clip-path="url(#baaed7b0d4)"><path fill="#7d34c6" d="M 671.394531 305.996094 C 671.394531 458.070312 548.070312 581.394531 395.996094 581.394531 C 243.921875 581.394531 120.601562 458.070312 120.601562 305.996094 C 120.601562 153.921875 243.921875 30.601562 395.996094 30.601562 C 548.070312 30.601562 671.394531 153.921875 671.394531 305.996094 Z M 671.394531 305.996094 " fill-opacity="1" fill-rule="nonzero"/></g><path fill="#ffffff" d="M 327.148438 154.527344 L 506.15625 154.527344 L 506.15625 195.839844 L 327.148438 195.839844 Z M 285.835938 223.378906 L 506.15625 223.378906 L 506.15625 264.6875 L 285.835938 264.6875 Z M 285.835938 223.378906 " fill-opacity="1" fill-rule="nonzero"/><path fill="#ffffff" d="M 346.988281 347.304688 L 347.800781 347.304688 C 397.664062 347.304688 451.074219 308.570312 451.074219 250.917969 C 451.074219 193.261719 397.664062 154.527344 347.800781 154.527344 L 285.835938 154.527344 L 285.835938 195.839844 L 347.800781 195.839844 C 373.785156 195.839844 409.765625 214.992188 409.765625 250.917969 C 409.765625 286.84375 373.785156 305.996094 347.800781 305.996094 L 285.835938 305.996094 L 285.835938 350.101562 L 431.234375 471.234375 L 495.730469 471.234375 Z M 346.988281 347.304688 " fill-opacity="1" fill-rule="nonzero"/></svg>